<svg xmlns="http://www.w3.org/2000/svg" viewBox="0 0 200 200" width="200" height="200" role="img" aria-label="Avatar">
  <defs>
    <linearGradient id="bg1" x1="0" y1="0" x2="1" y2="1">
      <stop offset="0" stop-color="#8F79C9"/>
      <stop offset="1" stop-color="#5E4A9B"/>
    </linearGradient>
    <radialGradient id="gl1" cx="0.32" cy="0.22" r="0.75">
      <stop offset="0" stop-color="#ffffff" stop-opacity="0.28"/>
      <stop offset="1" stop-color="#ffffff" stop-opacity="0"/>
    </radialGradient>
  </defs>
  <circle cx="100" cy="100" r="100" fill="url(#bg1)"/>
  <circle cx="100" cy="100" r="100" fill="url(#gl1)"/>
  <path d="M56 78 L62 38 L94 60 Z" fill="#6E5AAC"/>
  <path d="M144 78 L138 38 L106 60 Z" fill="#6E5AAC"/>
  <path d="M66 52 L69 66 L83 62 Z" fill="#F5C6D6"/>
  <path d="M134 52 L131 66 L117 62 Z" fill="#F5C6D6"/>
  <ellipse cx="100" cy="104" rx="49" ry="46" fill="#7F6AB8"/>
  <circle cx="80" cy="98" r="8" fill="#241F30"/>
  <circle cx="120" cy="98" r="8" fill="#241F30"/>
  <circle cx="82.4" cy="95.6" r="2.56" fill="#fff" opacity="0.9"/>
  <circle cx="122.4" cy="95.6" r="2.56" fill="#fff" opacity="0.9"/>
  <ellipse cx="66" cy="116" rx="9" ry="6" fill="#F2748C" opacity="0.45"/>
  <ellipse cx="134" cy="116" rx="9" ry="6" fill="#F2748C" opacity="0.45"/>
  <path d="M100 114l-7 6h14z" fill="#F5C6D6"/>
  <path d="M100 120v6" stroke="#33285A" stroke-width="3.5" stroke-linecap="round"/>
  <path d="M100 126c-5 5-13 4-16 0M100 126c5 5 13 4 16 0" stroke="#33285A" stroke-width="3.5" stroke-linecap="round" fill="none"/>
  <path d="M46 106h-16M46 116h-16M154 106h16M154 116h16" stroke="#33285A" stroke-width="3" stroke-linecap="round" opacity="0.55"/>
</svg>
